# xmcd
#
# Track frame offsets: 
#        150
#        24666
#        42661
#        61476
#        81702
#        107831
#        131676
#        155184
#        177169
#        190286
#        216595
#        230051
#        252675
#
# Disc length: 3660 seconds
#
# Revision: 1
# Processed by: cddbd v1.5.2PL0 Copyright (c) Steve Scherf et al.
# Submitted via: ExactAudioCopy v1.0b3
#
DISCID=d40e4a0d
DTITLE=Fruteland Jackson - Blues 2.0
DYEAR=2003
DGENRE=Blues
TTITLE0=Blues 2.0
TTITLE1=My Pencil Don't Write No More
TTITLE2=Laura Marie
TTITLE3=Long Distance Love Affair
TTITLE4=I Wonder
TTITLE5=Moon Man Rag
TTITLE6=I Can Still Rock And Roll
TTITLE7=How Could We Live Without Love
TTITLE8=Big Road Blues
TTITLE9=Lucky Lady
TTITLE10=Sometimes Bad Man Blues
TTITLE11=Blues On The Banjo
TTITLE12=The Lonely Traveler
EXTD=YEAR: 2003
EXTT0=
EXTT1=
EXTT2=
EXTT3=
EXTT4=
EXTT5=
EXTT6=
EXTT7=
EXTT8=
EXTT9=
EXTT10=
EXTT11=
EXTT12=
PLAYORDER=
